<svg width="19" height="22" viewBox="0 0 19 22" fill="none" xmlns="http://www.w3.org/2000/svg">
<path d="M9.37366 12.921C7.24366 12.921 5.50366 11.191 5.50366 9.05101C5.50366 6.91101 7.24366 5.19101 9.37366 5.19101C11.5037 5.19101 13.2437 6.92101 13.2437 9.06101C13.2437 11.201 11.5037 12.921 9.37366 12.921V12.921ZM9.37366 6.69101C8.07366 6.69101 7.00366 7.75101 7.00366 9.06101C7.00366 10.371 8.06366 11.431 9.37366 11.431C10.6837 11.431 11.7437 10.371 11.7437 9.06101C11.7437 7.75101 10.6737 6.69101 9.37366 6.69101V6.69101Z" fill="black"/>
<path d="M9.37664 21.51C7.83607 21.5071 6.35627 20.9087 5.24664 19.84C2.29664 17 -0.963359 12.47 0.266641 7.08C1.37664 2.19 5.64664 0 9.37664 0H9.38664C13.1166 0 17.3866 2.19 18.4966 7.09C19.7166 12.48 16.4566 17 13.5066 19.84C12.397 20.9087 10.9172 21.5071 9.37664 21.51V21.51ZM9.37664 1.5C6.46664 1.5 2.72664 3.05 1.73664 7.41C0.656641 12.12 3.61664 16.18 6.29664 18.75C7.12266 19.5533 8.22943 20.0027 9.38164 20.0027C10.5339 20.0027 11.6406 19.5533 12.4666 18.75C15.1366 16.18 18.0966 12.12 17.0366 7.41C16.0366 3.05 12.2866 1.5 9.37664 1.5V1.5Z" fill="black"/>
</svg>
