<svg width="20" height="21" viewBox="0 0 20 21" fill="none" xmlns="http://www.w3.org/2000/svg">
<path d="M14.772 20.927C15.2291 20.927 15.6675 20.7455 15.9907 20.4223C16.3139 20.0991 16.4954 19.6607 16.4954 19.2036C16.4954 18.7466 16.3139 18.3082 15.9907 17.985C15.6675 17.6618 15.2291 17.4802 14.772 17.4802C14.315 17.4802 13.8766 17.6618 13.5534 17.985C13.2302 18.3082 13.0486 18.7466 13.0486 19.2036C13.0486 19.6607 13.2302 20.0991 13.5534 20.4223C13.8766 20.7455 14.315 20.927 14.772 20.927ZM6.89361 20.927C7.35069 20.927 7.78904 20.7455 8.11224 20.4223C8.43544 20.0991 8.61702 19.6607 8.61702 19.2036C8.61702 18.7466 8.43544 18.3082 8.11224 17.985C7.78904 17.6618 7.35069 17.4802 6.89361 17.4802C6.43654 17.4802 5.99818 17.6618 5.67498 17.985C5.35178 18.3082 5.17021 18.7466 5.17021 19.2036C5.17021 19.6607 5.35178 20.0991 5.67498 20.4223C5.99818 20.7455 6.43654 20.927 6.89361 20.927ZM3.53544 2.64912L3.33848 5.06188C3.29909 5.52474 3.66346 5.90881 4.12632 5.90881H19.2036C19.6173 5.90881 19.9619 5.59367 19.9915 5.18006C20.1195 3.43696 18.79 2.01884 17.0469 2.01884H4.94371C4.84522 1.58553 4.64826 1.17191 4.34298 0.827233C3.85058 0.305288 3.16121 0 2.45216 0H0.738601C0.334833 0 0 0.334833 0 0.738601C0 1.14237 0.334833 1.4772 0.738601 1.4772H2.45216C2.75745 1.4772 3.04304 1.60523 3.24985 1.82188C3.45665 2.04839 3.55513 2.34383 3.53544 2.64912V2.64912ZM18.9673 7.38601H3.86042C3.44681 7.38601 3.11197 7.70115 3.07258 8.10492L2.71805 12.3888C2.68424 12.7857 2.73321 13.1853 2.86186 13.5623C2.99051 13.9394 3.19603 14.2856 3.46542 14.579C3.73481 14.8725 4.06219 15.1068 4.42684 15.2672C4.7915 15.4275 5.18547 15.5104 5.58383 15.5106H16.5348C18.012 15.5106 19.312 14.2993 19.4203 12.8221L19.7453 8.2231C19.7547 8.11581 19.7414 8.00775 19.7064 7.9059C19.6715 7.80404 19.6155 7.71066 19.5422 7.63177C19.4689 7.55289 19.3798 7.49026 19.2808 7.44793C19.1818 7.40559 19.075 7.3845 18.9673 7.38601V7.38601Z" fill="black"/>
</svg>
