<svg width="21" height="20" viewBox="0 0 21 20" fill="none" xmlns="http://www.w3.org/2000/svg">
<path d="M19.569 8.869L18.049 7.349C17.789 7.089 17.579 6.579 17.579 6.219V4.059C17.579 3.179 16.859 2.459 15.979 2.459H13.829C13.469 2.459 12.959 2.249 12.699 1.989L11.179 0.468998C10.559 -0.151002 9.53901 -0.151002 8.91901 0.468998L7.37901 1.989C7.12901 2.249 6.61901 2.459 6.24901 2.459H4.09901C3.21901 2.459 2.49901 3.179 2.49901 4.059V6.209C2.49901 6.569 2.28901 7.079 2.02901 7.339L0.509006 8.859C-0.110994 9.479 -0.110994 10.499 0.509006 11.119L2.02901 12.639C2.28901 12.899 2.49901 13.409 2.49901 13.769V15.919C2.49901 16.799 3.21901 17.519 4.09901 17.519H6.24901C6.60901 17.519 7.11901 17.729 7.37901 17.989L8.89901 19.509C9.51901 20.129 10.539 20.129 11.159 19.509L12.679 17.989C12.939 17.729 13.449 17.519 13.809 17.519H15.959C16.839 17.519 17.559 16.799 17.559 15.919V13.769C17.559 13.409 17.769 12.899 18.029 12.639L19.549 11.119C20.199 10.509 20.199 9.489 19.569 8.869V8.869ZM6.03901 6.999C6.03901 6.449 6.48901 5.999 7.03901 5.999C7.58901 5.999 8.03901 6.449 8.03901 6.999C8.03901 7.549 7.59901 7.999 7.03901 7.999C6.48901 7.999 6.03901 7.549 6.03901 6.999ZM7.56901 13.529C7.41901 13.679 7.22901 13.749 7.03901 13.749C6.84901 13.749 6.65901 13.679 6.50901 13.529C6.36953 13.3879 6.2913 13.1974 6.2913 12.999C6.2913 12.8006 6.36953 12.6101 6.50901 12.469L12.509 6.469C12.799 6.179 13.279 6.179 13.569 6.469C13.859 6.759 13.859 7.239 13.569 7.529L7.56901 13.529V13.529ZM13.039 13.999C12.479 13.999 12.029 13.549 12.029 12.999C12.029 12.449 12.479 11.999 13.029 11.999C13.579 11.999 14.029 12.449 14.029 12.999C14.029 13.549 13.589 13.999 13.039 13.999Z" fill="white"/>
</svg>
