<svg width="22" height="22" viewBox="0 0 22 22" fill="none" xmlns="http://www.w3.org/2000/svg">
<path d="M11.0032 21.47C10.3732 21.47 9.78317 21.23 9.34317 20.78L7.82317 19.26C7.70317 19.14 7.38317 19.01 7.22317 19.01H5.06317C3.76317 19.01 2.71317 17.96 2.71317 16.66V14.5C2.71317 14.34 2.58317 14.02 2.46317 13.9L0.943174 12.38C0.503174 11.94 0.253174 11.35 0.253174 10.72C0.253174 10.09 0.493174 9.5 0.943174 9.06L2.46317 7.54C2.58317 7.42 2.71317 7.1 2.71317 6.94V4.78C2.71317 3.48 3.76317 2.43 5.06317 2.43H7.22317C7.38317 2.43 7.70317 2.3 7.82317 2.18L9.34317 0.66C10.2232 -0.22 11.7832 -0.22 12.6632 0.66L14.1832 2.18C14.3032 2.3 14.6232 2.43 14.7832 2.43H16.9432C18.2432 2.43 19.2932 3.48 19.2932 4.78V6.94C19.2932 7.1 19.4232 7.42 19.5432 7.54L21.0632 9.06C21.5032 9.5 21.7532 10.09 21.7532 10.72C21.7532 11.35 21.5132 11.94 21.0632 12.38L19.5432 13.9C19.4232 14.02 19.2932 14.34 19.2932 14.5V16.66C19.2932 17.96 18.2432 19.01 16.9432 19.01H14.7832C14.6232 19.01 14.3032 19.14 14.1832 19.26L12.6632 20.78C12.2232 21.23 11.6332 21.47 11.0032 21.47V21.47ZM3.52317 12.84C3.92317 13.24 4.21317 13.94 4.21317 14.5V16.66C4.21317 17.13 4.59317 17.51 5.06317 17.51H7.22317C7.78317 17.51 8.48317 17.8 8.88317 18.2L10.4032 19.72C10.7232 20.04 11.2832 20.04 11.6032 19.72L13.1232 18.2C13.5232 17.8 14.2232 17.51 14.7832 17.51H16.9432C17.4132 17.51 17.7932 17.13 17.7932 16.66V14.5C17.7932 13.94 18.0832 13.24 18.4832 12.84L20.0032 11.32C20.0826 11.2416 20.1456 11.1482 20.1886 11.0452C20.2315 10.9421 20.2535 10.8316 20.2532 10.72C20.2535 10.6084 20.2315 10.4979 20.1886 10.3948C20.1456 10.2918 20.0826 10.1984 20.0032 10.12L18.4832 8.6C18.0832 8.2 17.7932 7.5 17.7932 6.94V4.78C17.7932 4.55457 17.7036 4.33836 17.5442 4.17896C17.3848 4.01955 17.1686 3.93 16.9432 3.93H14.7832C14.2232 3.93 13.5232 3.64 13.1232 3.24L11.6032 1.72C11.4414 1.56593 11.2266 1.48 11.0032 1.48C10.7798 1.48 10.5649 1.56593 10.4032 1.72L8.88317 3.24C8.48317 3.64 7.78317 3.93 7.22317 3.93H5.06317C4.83774 3.93 4.62154 4.01955 4.46213 4.17896C4.30273 4.33836 4.21317 4.55457 4.21317 4.78V6.94C4.21317 7.5 3.92317 8.2 3.52317 8.6L2.00317 10.12C1.92373 10.1984 1.86071 10.2918 1.81779 10.3948C1.77486 10.4979 1.7529 10.6084 1.75317 10.72C1.75317 10.95 1.84317 11.16 2.00317 11.32L3.52317 12.84V12.84Z" fill="black"/>
<path d="M14.0052 14.719C13.4452 14.719 12.9952 14.269 12.9952 13.719C12.9952 13.169 13.4452 12.719 13.9952 12.719C14.5452 12.719 14.9952 13.169 14.9952 13.719C14.9952 14.269 14.5552 14.719 14.0052 14.719ZM8.01317 8.71899C7.45317 8.71899 7.00317 8.26899 7.00317 7.71899C7.00317 7.16899 7.45317 6.71899 8.00317 6.71899C8.55317 6.71899 9.00317 7.16899 9.00317 7.71899C9.00317 8.26899 8.56317 8.71899 8.01317 8.71899ZM8.00417 14.47C7.81417 14.47 7.62417 14.4 7.47417 14.25C7.33493 14.1087 7.25688 13.9183 7.25688 13.72C7.25688 13.5216 7.33493 13.3313 7.47417 13.19L13.4742 7.18999C13.7642 6.89999 14.2442 6.89999 14.5342 7.18999C14.8242 7.47999 14.8242 7.95999 14.5342 8.24999L8.53417 14.25C8.38417 14.4 8.19417 14.47 8.00417 14.47V14.47Z" fill="black"/>
</svg>
