<svg width="67" height="22" viewBox="0 0 67 22" fill="none" xmlns="http://www.w3.org/2000/svg">
<path d="M64.8618 13.4114L66.7218 14.6513C66.1181 15.5405 64.6742 17.0661 62.1779 17.0661C59.078 17.0661 56.7694 14.6677 56.7694 11.6167C56.7694 8.36995 59.1025 6.16733 61.9169 6.16733C64.7476 6.16733 66.1344 8.41879 66.5831 9.63429L66.8279 10.2544L59.5349 13.2727C60.0896 14.3659 60.9544 14.9206 62.1779 14.9206C63.4017 14.9206 64.25 14.3169 64.8618 13.4114ZM59.1433 11.4455L64.0135 9.42228C63.7442 8.74526 62.9449 8.26401 61.9902 8.26401C60.7749 8.26401 59.0862 9.34083 59.1433 11.4455Z" fill="#FF302F"/>
<path d="M53.2535 0.611947H55.6028V16.5685H53.2535V0.611816V0.611947Z" fill="#20B15A"/>
<path d="M49.5499 6.59148H51.8177V16.2829C51.8177 20.3046 49.4438 21.9606 46.6375 21.9606C43.9945 21.9606 42.4038 20.1822 41.8083 18.7384L43.8884 17.8736C44.2636 18.7627 45.1692 19.8152 46.6375 19.8152C48.4404 19.8152 49.5499 18.6975 49.5499 16.6092V15.8261H49.4683C48.9299 16.4787 47.902 17.066 46.5968 17.066C43.8721 17.066 41.3757 14.6921 41.3757 11.633C41.3757 8.55747 43.8721 6.15921 46.5968 6.15921C47.8939 6.15921 48.9299 6.73841 49.4683 7.37471H49.5499V6.59162V6.59148ZM49.7129 11.633C49.7129 9.70776 48.4322 8.3046 46.8007 8.3046C45.1528 8.3046 43.766 9.70776 43.766 11.633C43.766 13.5337 45.1528 14.9123 46.8007 14.9123C48.4324 14.9206 49.7131 13.5337 49.7131 11.633H49.7129Z" fill="#3686F7"/>
<path d="M28.4785 11.5922C28.4785 14.7329 26.0313 17.0415 23.0292 17.0415C20.0272 17.0415 17.5799 14.7248 17.5799 11.5922C17.5799 8.43518 20.0272 6.13474 23.0292 6.13474C26.0313 6.13474 28.4785 8.43518 28.4785 11.5922ZM26.0965 11.5922C26.0965 9.63444 24.677 8.28825 23.0292 8.28825C21.3814 8.28825 19.9619 9.63444 19.9619 11.5922C19.9619 13.5337 21.3814 14.8961 23.0292 14.8961C24.6771 14.8961 26.0965 13.5337 26.0965 11.5922Z" fill="#FF302F"/>
<path d="M40.3806 11.6167C40.3806 14.7574 37.9333 17.066 34.9313 17.066C31.9292 17.066 29.482 14.7573 29.482 11.6167C29.482 8.45965 31.9292 6.16733 34.9313 6.16733C37.9333 6.16733 40.3806 8.45153 40.3806 11.6167ZM37.9904 11.6167C37.9904 9.65891 36.571 8.31272 34.9231 8.31272C33.2753 8.31272 31.8558 9.65891 31.8558 11.6167C31.8558 13.5582 33.2753 14.9206 34.9231 14.9206C36.5791 14.9206 37.9904 13.55 37.9904 11.6167Z" fill="#FFBA40"/>
<path d="M8.62269 14.6758C5.20457 14.6758 2.52895 11.9185 2.52895 8.50038C2.52895 5.08239 5.20457 2.32506 8.62269 2.32506C10.4664 2.32506 11.8123 3.05106 12.8075 3.98108L14.4473 2.34143C13.0605 1.01174 11.2087 0 8.62269 0C3.94023 0.000130952 0 3.81805 0 8.50038C0 13.183 3.94023 17.0008 8.62269 17.0008C11.1516 17.0008 13.0605 16.1687 14.5534 14.6187C16.087 13.085 16.5601 10.9314 16.5601 9.18565C16.5601 8.63906 16.4949 8.07623 16.4214 7.66019H8.62269V9.92802H14.1781C14.0149 11.3475 13.5663 12.3183 12.9055 12.979C12.106 13.7867 10.8417 14.6758 8.62269 14.6758Z" fill="#3686F7"/>
</svg>
