<svg width="21" height="18" viewBox="0 0 21 18" fill="none" xmlns="http://www.w3.org/2000/svg">
<path d="M14.48 0.10199C12.67 0.10199 11.05 0.98199 10.04 2.33199C9.52414 1.6408 8.85426 1.07938 8.08354 0.692284C7.31282 0.305188 6.46248 0.103075 5.60001 0.10199C2.53001 0.10199 0.0400085 2.60199 0.0400085 5.69199C0.0400085 6.88199 0.230009 7.98199 0.560009 9.00199C2.14001 14.002 7.01001 16.992 9.42001 17.812C9.76001 17.932 10.32 17.932 10.66 17.812C13.07 16.992 17.94 14.002 19.52 9.00199C19.85 7.98199 20.04 6.88199 20.04 5.69199C20.04 2.60199 17.55 0.10199 14.48 0.10199V0.10199Z" fill="white"/>
</svg>
