<svg width="22" height="20" viewBox="0 0 22 20" fill="none" xmlns="http://www.w3.org/2000/svg">
<path d="M11.0032 19.371C10.6932 19.371 10.3932 19.331 10.1432 19.241C6.32317 17.931 0.253174 13.281 0.253174 6.41098C0.253174 2.91098 3.08317 0.0709777 6.56317 0.0709777C8.25317 0.0709777 9.83317 0.730978 11.0032 1.91098C11.584 1.32484 12.2758 0.860258 13.0381 0.544343C13.8004 0.228429 14.618 0.0675101 15.4432 0.0709777C18.9232 0.0709777 21.7532 2.92098 21.7532 6.41098C21.7532 13.291 15.6832 17.931 11.8632 19.241C11.6132 19.331 11.3132 19.371 11.0032 19.371ZM6.56317 1.57098C3.91317 1.57098 1.75317 3.74098 1.75317 6.41098C1.75317 13.241 8.32317 17.041 10.6332 17.831C10.8132 17.891 11.2032 17.891 11.3832 17.831C13.6832 17.041 20.2632 13.251 20.2632 6.41098C20.2632 3.74098 18.1032 1.57098 15.4532 1.57098C13.9332 1.57098 12.5232 2.28098 11.6132 3.51098C11.3332 3.89098 10.6932 3.89098 10.4132 3.51098C9.96881 2.90806 9.38871 2.41825 8.71985 2.08121C8.05099 1.74417 7.31215 1.56938 6.56317 1.57098V1.57098Z" fill="black"/>
</svg>
