<svg width="21" height="20" viewBox="0 0 21 20" fill="none" xmlns="http://www.w3.org/2000/svg">
<path d="M18.9 6.37L11.97 0.830002C10.9 -0.0299982 9.17 -0.0299982 8.11 0.820002L1.18 6.37C0.399999 6.99 -0.100001 8.3 0.0699989 9.28L1.4 17.24C1.64 18.66 3 19.81 4.44 19.81H15.64C17.07 19.81 18.44 18.65 18.68 17.24L20.01 9.28C20.17 8.3 19.67 6.99 18.9 6.37V6.37ZM10.04 13.5C9.37696 13.5 8.74107 13.2366 8.27223 12.7678C7.80339 12.2989 7.54 11.663 7.54 11C7.54 10.337 7.80339 9.70108 8.27223 9.23223C8.74107 8.76339 9.37696 8.5 10.04 8.5C10.703 8.5 11.3389 8.76339 11.8078 9.23223C12.2766 9.70108 12.54 10.337 12.54 11C12.54 11.663 12.2766 12.2989 11.8078 12.7678C11.3389 13.2366 10.703 13.5 10.04 13.5V13.5Z" fill="white"/>
</svg>
