<svg width="22" height="22" viewBox="0 0 22 22" fill="none" xmlns="http://www.w3.org/2000/svg">
<path d="M9.07319 1.539L2.14319 7.089C1.36319 7.709 0.863195 9.019 1.03319 9.999L2.36319 17.959C2.60319 19.379 3.96319 20.529 5.40319 20.529H16.6032C18.0332 20.529 19.4032 19.369 19.6432 17.959L20.9732 9.999C21.1332 9.019 20.6332 7.709 19.8632 7.089L12.9332 1.549C11.8632 0.688996 10.1332 0.688996 9.07319 1.539V1.539Z" stroke="black" stroke-width="1.5" stroke-linecap="round" stroke-linejoin="round"/>
<path d="M11.0032 14.219C11.6662 14.219 12.3021 13.9556 12.7709 13.4868C13.2398 13.0179 13.5032 12.382 13.5032 11.719C13.5032 11.056 13.2398 10.4201 12.7709 9.95123C12.3021 9.48239 11.6662 9.21899 11.0032 9.21899C10.3401 9.21899 9.70425 9.48239 9.23541 9.95123C8.76657 10.4201 8.50317 11.056 8.50317 11.719C8.50317 12.382 8.76657 13.0179 9.23541 13.4868C9.70425 13.9556 10.3401 14.219 11.0032 14.219Z" stroke="black" stroke-width="1.5" stroke-linecap="round" stroke-linejoin="round"/>
</svg>
