<svg width="22" height="22" viewBox="0 0 22 22" fill="none" xmlns="http://www.w3.org/2000/svg">
<path d="M11 21.75C5.07 21.75 0.25 16.93 0.25 11C0.25 5.07 5.07 0.25 11 0.25C16.93 0.25 21.75 5.07 21.75 11C21.75 16.93 16.93 21.75 11 21.75ZM11 1.75C5.9 1.75 1.75 5.9 1.75 11C1.75 16.1 5.9 20.25 11 20.25C16.1 20.25 20.25 16.1 20.25 11C20.25 5.9 16.1 1.75 11 1.75Z" fill="black"/>
<path d="M11 12.75C10.59 12.75 10.25 12.41 10.25 12V7C10.25 6.59 10.59 6.25 11 6.25C11.41 6.25 11.75 6.59 11.75 7V12C11.75 12.41 11.41 12.75 11 12.75ZM11 15.999C10.87 15.999 10.74 15.969 10.62 15.919C10.5 15.869 10.39 15.799 10.29 15.709C10.2 15.609 10.13 15.509 10.08 15.379C10.0286 15.2588 10.0015 15.1297 10 14.999C10 14.869 10.03 14.739 10.08 14.619C10.13 14.499 10.2 14.389 10.29 14.289C10.39 14.199 10.5 14.129 10.62 14.079C10.8635 13.979 11.1365 13.979 11.38 14.079C11.5 14.129 11.61 14.199 11.71 14.289C11.8 14.389 11.87 14.499 11.92 14.619C11.97 14.739 12 14.869 12 14.999C12 15.129 11.97 15.259 11.92 15.379C11.87 15.509 11.8 15.609 11.71 15.709C11.61 15.799 11.5 15.869 11.38 15.919C11.26 15.969 11.13 15.999 11 15.999V15.999Z" fill="black"/>
</svg>
