<svg width="20" height="20" viewBox="0 0 20 20" fill="none" xmlns="http://www.w3.org/2000/svg">
<path d="M16.5176 6.498C16.975 6.498 17.4278 6.41396 17.8503 6.25068C18.2728 6.0874 18.6567 5.84808 18.98 5.54639C19.3034 5.24469 19.5599 4.88652 19.7349 4.49234C19.9099 4.09815 20 3.67566 20 3.249C20 2.82233 19.9099 2.39985 19.7349 2.00566C19.5599 1.61147 19.3034 1.25331 18.98 0.951609C18.6567 0.649912 18.2728 0.410593 17.8503 0.247315C17.4278 0.0840378 16.975 -6.3578e-09 16.5176 0C15.5941 1.28402e-08 14.7083 0.342304 14.0553 0.951609C13.4022 1.56091 13.0353 2.38731 13.0353 3.249C13.0353 4.11069 13.4022 4.93708 14.0553 5.54639C14.7083 6.15569 15.5941 6.498 16.5176 6.498ZM3.48235 6.498C3.93966 6.498 4.39249 6.41396 4.81499 6.25068C5.23749 6.0874 5.62138 5.84808 5.94475 5.54639C6.26811 5.24469 6.52462 4.88652 6.69963 4.49234C6.87463 4.09815 6.96471 3.67566 6.96471 3.249C6.96471 2.82233 6.87463 2.39985 6.69963 2.00566C6.52462 1.61147 6.26811 1.25331 5.94475 0.951609C5.62138 0.649912 5.23749 0.410593 4.81499 0.247315C4.39249 0.0840378 3.93966 -6.3578e-09 3.48235 0C2.55878 1.28402e-08 1.67303 0.342304 1.01996 0.951609C0.36689 1.56091 0 2.38731 0 3.249C0 4.11069 0.36689 4.93708 1.01996 5.54639C1.67303 6.15569 2.55878 6.498 3.48235 6.498V6.498ZM16.5176 20C17.4412 20 18.327 19.6577 18.98 19.0484C19.6331 18.4391 20 17.6127 20 16.751C20 15.8893 19.6331 15.0629 18.98 14.4536C18.327 13.8443 17.4412 13.502 16.5176 13.502C15.5941 13.502 14.7083 13.8443 14.0553 14.4536C13.4022 15.0629 13.0353 15.8893 13.0353 16.751C13.0353 17.6127 13.4022 18.4391 14.0553 19.0484C14.7083 19.6577 15.5941 20 16.5176 20V20ZM3.48235 20C4.40593 20 5.29168 19.6577 5.94475 19.0484C6.59782 18.4391 6.96471 17.6127 6.96471 16.751C6.96471 15.8893 6.59782 15.0629 5.94475 14.4536C5.29168 13.8443 4.40593 13.502 3.48235 13.502C2.55878 13.502 1.67303 13.8443 1.01996 14.4536C0.36689 15.0629 0 15.8893 0 16.751C0 17.6127 0.36689 18.4391 1.01996 19.0484C1.67303 19.6577 2.55878 20 3.48235 20V20Z" fill="black"/>
</svg>
