<svg width="18" height="22" viewBox="0 0 18 22" fill="none" xmlns="http://www.w3.org/2000/svg">
<path d="M8.79331 19.352C6.46331 19.352 4.13331 18.982 1.92331 18.242C1.08331 17.952 0.443307 17.362 0.163307 16.592C-0.126693 15.822 -0.0266934 14.972 0.433307 14.212L1.58331 12.302C1.82331 11.902 2.04331 11.102 2.04331 10.632V7.742C2.04331 4.022 5.07331 0.992004 8.79331 0.992004C12.5133 0.992004 15.5433 4.022 15.5433 7.742V10.632C15.5433 11.092 15.7633 11.902 16.0033 12.312L17.1433 14.212C17.5733 14.932 17.6533 15.802 17.3633 16.592C17.2217 16.9785 16.9942 17.3278 16.698 17.6136C16.4018 17.8994 16.0446 18.1143 15.6533 18.242C13.4533 18.982 11.1233 19.352 8.79331 19.352ZM8.79331 2.492C5.90331 2.492 3.54331 4.842 3.54331 7.742V10.632C3.54331 11.362 3.24331 12.442 2.87331 13.072L1.72331 14.982C1.50331 15.352 1.44331 15.742 1.57331 16.072C1.69331 16.412 1.99331 16.672 2.40331 16.812C6.55172 18.212 11.0449 18.212 15.1933 16.812C15.5533 16.692 15.8333 16.422 15.9633 16.062C16.0933 15.702 16.0633 15.312 15.8633 14.982L14.7133 13.072C14.3333 12.422 14.0433 11.352 14.0433 10.622V7.742C14.0433 4.842 11.6933 2.492 8.79331 2.492V2.492Z" fill="black"/>
<path d="M10.6533 2.76002C10.5833 2.76002 10.5133 2.75002 10.4433 2.73002C10.1533 2.65002 9.87333 2.59002 9.60333 2.55002C8.75333 2.44002 7.93333 2.50002 7.16333 2.73002C6.88333 2.82002 6.58333 2.73002 6.39333 2.52002C6.29866 2.41653 6.23526 2.28833 6.21048 2.15027C6.18571 2.01222 6.20056 1.86997 6.25333 1.74002C6.45243 1.22606 6.80277 0.784583 7.25805 0.473917C7.71334 0.163251 8.25216 -0.00199115 8.80333 1.81082e-05C9.94333 1.81082e-05 10.9433 0.680018 11.3533 1.74002C11.4533 2.01002 11.4033 2.31002 11.2133 2.52002C11.0633 2.68002 10.8533 2.76002 10.6533 2.76002V2.76002ZM8.79333 21.629C7.80333 21.629 6.84333 21.229 6.14333 20.529C5.44333 19.829 5.04333 18.869 5.04333 17.879H6.54333C6.54333 18.469 6.78333 19.049 7.20333 19.469C7.62333 19.889 8.20333 20.129 8.79333 20.129C10.0333 20.129 11.0433 19.119 11.0433 17.879H12.5433C12.5433 19.949 10.8633 21.629 8.79333 21.629Z" fill="black"/>
</svg>
