<svg width="20" height="16" viewBox="0 0 20 16" fill="none" xmlns="http://www.w3.org/2000/svg">
<path d="M13 15.75H7C2.38 15.75 1.52 13.6 1.3 11.51L0.550001 5.52C0.440001 4.44 0.400001 2.89 1.45 1.73C2.35 0.73 3.84 0.25 6 0.25H14C16.17 0.25 17.66 0.74 18.55 1.73C19.59 2.89 19.56 4.44 19.45 5.5L18.7 11.51C18.48 13.6 17.62 15.75 13 15.75ZM6 1.75C4.31 1.75 3.15 2.08 2.56 2.74C2.07 3.28 1.91 4.11 2.04 5.35L2.79 11.34C2.96 12.94 3.4 14.26 7 14.26H13C16.6 14.26 17.04 12.95 17.21 11.36L17.96 5.35C18.09 4.13 17.93 3.3 17.44 2.75C16.85 2.08 15.69 1.75 14 1.75H6Z" fill="black"/>
<path d="M13.42 6.14801C12.86 6.14801 12.41 5.69801 12.41 5.14801C12.41 4.59801 12.86 4.14801 13.41 4.14801C13.96 4.14801 14.41 4.59801 14.41 5.14801C14.41 5.69801 13.97 6.14801 13.42 6.14801ZM6.41997 6.14801C5.85997 6.14801 5.40997 5.69801 5.40997 5.14801C5.40997 4.59801 5.85997 4.14801 6.40997 4.14801C6.95997 4.14801 7.40997 4.59801 7.40997 5.14801C7.40997 5.69801 6.96997 6.14801 6.41997 6.14801Z" fill="black"/>
</svg>
