<svg width="15" height="20" viewBox="0 0 15 20" fill="none" xmlns="http://www.w3.org/2000/svg">
<path d="M7.04 0C4.42 0 2.29 2.13 2.29 4.75C2.29 7.32 4.3 9.4 6.92 9.49C7 9.48 7.08 9.48 7.14 9.49H7.21C8.43936 9.44898 9.60458 8.93148 10.4593 8.04691C11.314 7.16234 11.7912 5.98004 11.79 4.75C11.79 2.13 9.66 0 7.04 0ZM12.12 12.149C9.33 10.289 4.78 10.289 1.97 12.149C0.7 12.999 0 14.149 0 15.379C0 16.609 0.7 17.749 1.96 18.589C3.36 19.529 5.2 19.999 7.04 19.999C8.88 19.999 10.72 19.529 12.12 18.589C13.38 17.739 14.08 16.599 14.08 15.359C14.07 14.129 13.38 12.989 12.12 12.149V12.149Z" fill="white"/>
</svg>
