<svg width="16" height="23" viewBox="0 0 16 23" fill="none" xmlns="http://www.w3.org/2000/svg">
<path d="M8.16216 11.339H8.08216C8.02258 11.329 7.96175 11.329 7.90216 11.339C5.00216 11.249 2.81216 8.96899 2.81216 6.15899C2.81216 3.29899 5.14216 0.968994 8.00216 0.968994C10.8622 0.968994 13.1922 3.29899 13.1922 6.15899C13.1822 8.96899 10.9822 11.249 8.19216 11.339H8.16216V11.339ZM8.00216 2.46899C7.02433 2.47163 6.08729 2.86125 5.39585 3.55269C4.70442 4.24412 4.3148 5.18116 4.31216 6.15899C4.31216 8.15899 5.87216 9.76899 7.86216 9.83899C7.91216 9.82899 8.05216 9.82899 8.18216 9.83899C10.1422 9.74899 11.6822 8.13899 11.6922 6.15899C11.6895 5.18116 11.2999 4.24412 10.6085 3.55269C9.91703 2.86125 8.98 2.47163 8.00216 2.46899V2.46899ZM8.17516 22.269C6.21516 22.269 4.24516 21.769 2.75516 20.769C1.36516 19.849 0.605164 18.589 0.605164 17.219C0.605164 15.849 1.36516 14.579 2.75516 13.649C5.75516 11.659 10.6152 11.659 13.5952 13.649C14.9752 14.569 15.7452 15.829 15.7452 17.199C15.7452 18.569 14.9852 19.839 13.5952 20.769C12.0952 21.769 10.1352 22.269 8.17516 22.269V22.269ZM3.58516 14.909C2.62516 15.549 2.10516 16.369 2.10516 17.229C2.10516 18.079 2.63516 18.899 3.58516 19.529C6.07516 21.199 10.2752 21.199 12.7652 19.529C13.7252 18.889 14.2452 18.069 14.2452 17.209C14.2452 16.359 13.7152 15.539 12.7652 14.909C10.2752 13.249 6.07516 13.249 3.58516 14.909Z" fill="black"/>
</svg>
