<svg width="24" height="21" viewBox="0 0 24 21" fill="none" xmlns="http://www.w3.org/2000/svg">
<path d="M4.2277 10.171C4.0377 10.171 3.8477 10.101 3.6977 9.95103L2.4877 8.74103L1.2777 9.95103C0.987702 10.241 0.507702 10.241 0.217702 9.95103C0.0782213 9.8099 0 9.61946 0 9.42103C0 9.2226 0.0782213 9.03217 0.217702 8.89103L1.9577 7.15103C2.2477 6.86103 2.7277 6.86103 3.0177 7.15103L4.7577 8.89103C5.0477 9.18103 5.0477 9.66103 4.7577 9.95103C4.6177 10.101 4.4177 10.171 4.2277 10.171V10.171ZM21.0177 13.07C20.8277 13.07 20.6377 13 20.4877 12.85L18.7477 11.11C18.6082 10.9689 18.53 10.7785 18.53 10.58C18.53 10.3816 18.6082 10.1912 18.7477 10.05C19.0377 9.76003 19.5177 9.76003 19.8077 10.05L21.0177 11.26L22.2277 10.05C22.5177 9.76003 22.9977 9.76003 23.2877 10.05C23.5777 10.34 23.5777 10.82 23.2877 11.11L21.5477 12.85C21.4077 12.99 21.2077 13.07 21.0177 13.07V13.07Z" fill="black"/>
<path d="M21.0177 13.07C20.6077 13.07 20.2677 12.73 20.2677 12.32V10C20.2677 5.31005 16.4477 1.49005 11.7577 1.49005C9.16768 1.49005 6.74768 2.65005 5.11768 4.68005C4.85768 5.00005 4.38768 5.05005 4.06768 4.80005C3.91269 4.67661 3.81301 4.49672 3.79051 4.29987C3.76801 4.10301 3.82454 3.90527 3.94768 3.75005C4.88229 2.57634 6.07034 1.62931 7.42287 0.979891C8.77539 0.33047 10.2573 -0.00450762 11.7577 4.58068e-05C17.2777 4.58068e-05 21.7677 4.49005 21.7677 10.01V12.33C21.7677 12.73 21.4377 13.07 21.0177 13.07V13.07ZM11.7577 20.01C6.23768 20.01 1.74768 15.52 1.74768 10V7.68005C1.74768 7.27005 2.08768 6.93005 2.49768 6.93005C2.90768 6.93005 3.24768 7.27005 3.24768 7.68005V10C3.24768 14.69 7.06768 18.51 11.7577 18.51C14.3477 18.51 16.7677 17.35 18.3977 15.32C18.5241 15.1745 18.7018 15.0834 18.8937 15.0656C19.0856 15.0479 19.277 15.105 19.4279 15.2249C19.5788 15.3449 19.6776 15.5184 19.7036 15.7094C19.7297 15.9004 19.681 16.0941 19.5677 16.25C18.6336 17.425 17.4459 18.3736 16.0934 19.0247C14.7409 19.6758 13.2587 20.0127 11.7577 20.01V20.01Z" fill="black"/>
<path d="M13.1377 10.7501H8.75769C8.34769 10.7501 8.00769 10.4101 8.00769 10.0001V6.50006C8.00769 6.09006 8.34769 5.75006 8.75769 5.75006H13.1377C14.4677 5.75006 15.6377 6.92006 15.6377 8.25006C15.6377 9.63006 14.5077 10.7501 13.1377 10.7501V10.7501ZM9.50769 9.25006H13.1277C13.6777 9.25006 14.1277 8.80006 14.1277 8.25006C14.1277 7.80006 13.6777 7.25006 13.1277 7.25006H9.50769V9.25006Z" fill="black"/>
<path d="M13.7577 14.2501H8.75769C8.34769 14.2501 8.00769 13.9101 8.00769 13.5001V10.0001C8.00769 9.59006 8.34769 9.25006 8.75769 9.25006H13.7577C15.2777 9.25006 16.5077 10.3701 16.5077 11.7501C16.5077 13.1301 15.2777 14.2501 13.7577 14.2501ZM9.50769 12.7501H13.7577C14.4477 12.7501 15.0077 12.3001 15.0077 11.7501C15.0077 11.2001 14.4477 10.7501 13.7577 10.7501H9.50769V12.7501Z" fill="black"/>
<path d="M11.5577 16.0001C11.1477 16.0001 10.8077 15.6601 10.8077 15.2501V13.5001C10.8077 13.0901 11.1477 12.7501 11.5577 12.7501C11.9677 12.7501 12.3077 13.0901 12.3077 13.5001V15.2501C12.3077 15.6601 11.9677 16.0001 11.5577 16.0001ZM11.5577 7.25006C11.1477 7.25006 10.8077 6.91006 10.8077 6.50006V4.75006C10.8077 4.34006 11.1477 4.00006 11.5577 4.00006C11.9677 4.00006 12.3077 4.34006 12.3077 4.75006V6.50006C12.3077 6.91006 11.9677 7.25006 11.5577 7.25006Z" fill="black"/>
</svg>
