<svg width="22" height="22" viewBox="0 0 22 22" fill="none" xmlns="http://www.w3.org/2000/svg">
<path d="M14 21.75H8C2.57 21.75 0.25 19.43 0.25 14V8C0.25 2.57 2.57 0.25 8 0.25H14C19.43 0.25 21.75 2.57 21.75 8V14C21.75 19.43 19.43 21.75 14 21.75ZM8 1.75C3.39 1.75 1.75 3.39 1.75 8V14C1.75 18.61 3.39 20.25 8 20.25H14C18.61 20.25 20.25 18.61 20.25 14V8C20.25 3.39 18.61 1.75 14 1.75H8Z" fill="black"/>
<path d="M16.498 16.828H14.648C14.238 16.828 13.898 16.488 13.898 16.078C13.898 15.668 14.238 15.328 14.648 15.328H16.498C16.908 15.328 17.248 15.668 17.248 16.078C17.248 16.488 16.908 16.828 16.498 16.828ZM11.97 16.828H5.5C5.09 16.828 4.75 16.488 4.75 16.078C4.75 15.668 5.09 15.328 5.5 15.328H11.97C12.1689 15.328 12.3597 15.407 12.5003 15.5477C12.641 15.6883 12.72 15.8791 12.72 16.078C12.72 16.2769 12.641 16.4677 12.5003 16.6083C12.3597 16.749 12.1689 16.828 11.97 16.828V16.828ZM16.499 13.07H10.969C10.559 13.07 10.219 12.73 10.219 12.32C10.219 11.91 10.559 11.57 10.969 11.57H16.499C16.909 11.57 17.249 11.91 17.249 12.32C17.249 12.73 16.909 13.07 16.499 13.07ZM8.27 13.07H5.5C5.09 13.07 4.75 12.73 4.75 12.32C4.75 11.91 5.09 11.57 5.5 11.57H8.27C8.68 11.57 9.02 11.91 9.02 12.32C9.02 12.73 8.68 13.07 8.27 13.07Z" fill="black"/>
</svg>
